<svg width="13" height="12" viewBox="0 0 13 12" fill="none" xmlns="http://www.w3.org/2000/svg">
<path d="M7.125 8.5L6.875 8L6.625 8.5H7.125Z" stroke="white" stroke-linecap="round" stroke-linejoin="round"/>
<path d="M8.375 11.0001C8.50761 11.0001 8.63479 10.9474 8.72855 10.8536C8.82232 10.7598 8.875 10.6327 8.875 10.5001V10.0001C9.06335 9.99994 9.24783 9.94664 9.40721 9.84628C9.5666 9.74592 9.6944 9.60259 9.7759 9.43279C9.8574 9.263 9.8893 9.07363 9.86791 8.8865C9.84652 8.69937 9.77272 8.52209 9.655 8.37506C10.228 7.82121 10.6225 7.10883 10.7879 6.32928C10.9533 5.54972 10.8821 4.73853 10.5834 3.99972C10.2847 3.26091 9.7721 2.62816 9.11138 2.18261C8.45066 1.73706 7.67191 1.49902 6.875 1.49902C6.07809 1.49902 5.29935 1.73706 4.63862 2.18261C3.9779 2.62816 3.46533 3.26091 3.16662 3.99972C2.86792 4.73853 2.79671 5.54972 2.96212 6.32928C3.12752 7.10883 3.52202 7.82121 4.095 8.37506C3.97728 8.52209 3.90348 8.69937 3.88209 8.8865C3.86071 9.07363 3.8926 9.263 3.9741 9.43279C4.05561 9.60259 4.18341 9.74592 4.34279 9.84628C4.50217 9.94664 4.68665 9.99994 4.875 10.0001V10.5001C4.875 10.6327 4.92768 10.7598 5.02145 10.8536C5.11522 10.9474 5.24239 11.0001 5.375 11.0001H8.375Z" stroke="white" stroke-linecap="round" stroke-linejoin="round"/>
<path d="M8.375 6.5C8.65114 6.5 8.875 6.27614 8.875 6C8.875 5.72386 8.65114 5.5 8.375 5.5C8.09886 5.5 7.875 5.72386 7.875 6C7.875 6.27614 8.09886 6.5 8.375 6.5Z" stroke="white" stroke-linecap="round" stroke-linejoin="round"/>
<path d="M5.375 6.5C5.65114 6.5 5.875 6.27614 5.875 6C5.875 5.72386 5.65114 5.5 5.375 5.5C5.09886 5.5 4.875 5.72386 4.875 6C4.875 6.27614 5.09886 6.5 5.375 6.5Z" stroke="white" stroke-linecap="round" stroke-linejoin="round"/>
</svg>
