<svg width="32" height="32" viewBox="0 0 32 32" fill="none" xmlns="http://www.w3.org/2000/svg">
<path d="M14.4246 12.0098C15.2828 12.0713 16.1178 12.317 16.8728 12.7295C17.6279 13.142 18.2852 13.7124 18.8006 14.4014C19.1312 14.8436 19.0414 15.47 18.5994 15.8008C18.1572 16.1316 17.5298 16.0409 17.199 15.5987C16.8555 15.1395 16.4171 14.7594 15.9139 14.4844C15.4106 14.2095 14.854 14.0459 14.282 14.0049C13.71 13.964 13.1358 14.0467 12.5984 14.2471C12.1281 14.4225 11.6955 14.6849 11.323 15.0196L11.1668 15.167L8.17949 18.1543L8.04668 18.2989C7.40192 19.0354 7.0479 19.9854 7.05644 20.9688C7.06568 22.0174 7.48679 23.0202 8.22832 23.7618C8.96985 24.5033 9.97266 24.9244 11.0213 24.9336C12.0701 24.9427 13.0813 24.5392 13.8357 23.8106L15.533 22.1133C15.9235 21.7228 16.5565 21.7228 16.9471 22.1133C17.3374 22.5039 17.3375 23.1369 16.9471 23.5274L15.2371 25.2373L15.0086 25.4483C13.9039 26.4153 12.4796 26.9464 11.0047 26.9336C9.43152 26.92 7.9267 26.2882 6.81425 25.1758C5.70181 24.0634 5.07011 22.5586 5.05644 20.9854C5.0437 19.5105 5.57471 18.0861 6.54179 16.9815L6.75273 16.753L9.75273 13.753L9.98613 13.5313C10.5448 13.0294 11.1938 12.6362 11.8992 12.3731C12.7052 12.0724 13.5665 11.9484 14.4246 12.0098ZM20.9959 5.06644C22.569 5.08016 24.0739 5.71185 25.1863 6.82425C26.2986 7.93667 26.9295 9.44164 26.9432 11.0147C26.9567 12.5876 26.3522 14.1029 25.2596 15.2344L22.2469 18.2471C21.6387 18.8555 20.9064 19.3263 20.1004 19.627C19.2944 19.9276 18.433 20.0507 17.575 19.9893C16.7169 19.9278 15.8817 19.683 15.1268 19.2705C14.3718 18.858 13.7143 18.2875 13.199 17.5987C12.8685 17.1564 12.959 16.53 13.4012 16.1993C13.8434 15.8685 14.4698 15.9592 14.8006 16.4014C15.1441 16.8606 15.5825 17.2407 16.0857 17.5157C16.5891 17.7907 17.1464 17.9542 17.7186 17.9952C18.2905 18.036 18.8649 17.9534 19.4021 17.753C19.9395 17.5525 20.4274 17.2386 20.8328 16.833L23.8328 13.833C24.5539 13.08 24.9522 12.0743 24.9432 11.0313C24.9339 9.98278 24.5136 8.97983 23.7723 8.23832C23.0306 7.49668 22.0271 7.07556 20.9783 7.06644C19.9295 7.05733 18.9192 7.46086 18.1648 8.18949L18.1639 8.18851L16.4549 9.88871C16.0632 10.2781 15.4302 10.2765 15.0408 9.8848C14.6516 9.49315 14.6532 8.86008 15.0447 8.47074L16.7654 6.76078L16.7752 6.75101C17.9068 5.65806 19.4227 5.05277 20.9959 5.06644Z" fill="white"/>
</svg>
